<svg data-v-0dd9719b="" version="1.0" xmlns="http://www.w3.org/2000/svg" xmlns:xlink="http://www.w3.org/1999/xlink" width="100%" height="100%" viewBox="0 0 340.000000 250.000000" preserveAspectRatio="xMidYMid meet" color-interpolation-filters="sRGB" style="margin: auto;"> <rect data-v-0dd9719b="" x="0" y="0" width="100%" height="100%" fill="#fff" fill-opacity="1" class="background"></rect> <rect data-v-0dd9719b="" x="0" y="0" width="100%" height="100%" fill="url(#watermark)" fill-opacity="1" class="watermarklayer"></rect> <g data-v-0dd9719b="" fill="#333" class="icon-text-wrapper icon-svg-group iconsvg" transform="translate(48.875,94.9960994720459)"><g class="iconsvg-imagesvg" transform="translate(0,0)"><g><rect fill="#333" fill-opacity="0" stroke-width="2" x="0" y="0" width="60" height="60.007801014131836" class="image-rect"></rect> <svg x="0" y="0" width="60" height="60.007801014131836" filtersec="colorsb9199237475" class="image-svg-svg primary" style="overflow: visible;"><svg xmlns="http://www.w3.org/2000/svg" viewBox="-0.019672099500894547 -0.006036281585693359 178.1875 178.2100372314453"><path d="M50.24 59.43h39.84c12.64 0 24.51 9.39 27.55 21.64 1.85 7.47 1.85 7.47-5.9 7.47h-9.26c-1.83 0-3-.47-3.63-2.5-1.41-4.55-4.72-6.83-9.49-6.84H23.58c-2 0-3.55.11-3.7 2.84-.79 14.27 1.4 27.86 8.5 40.45 9.4 16.66 23.29 27.67 41.53 33.3a65.17 65.17 0 0 0 20 2.6c15.85-.14 31.71 0 47.56 0h2.47c.82 0 2-.07 2.36 1s-.62 1.68-1.36 2.2a89.29 89.29 0 0 1-22.09 11.49 88.05 88.05 0 0 1-79.41-10.32c-17.78-12.2-29.82-28.61-35.84-49.39A86.5 86.5 0 0 1 .19 82.59a95.57 95.57 0 0 1 3.92-20.16c.7-2.32 2.38-3 4.75-3 13.79.07 27.58 0 41.38 0z"></path><path d="M129.02 118.21H90.1c-15.16 0-27-10.16-29.58-25-.47-2.76.51-3.55 3-3.52 4 .06 8 .08 12 0a3.72 3.72 0 0 1 4 2.55c2 4.76 5.52 7 10.88 6.91 10.39-.1 20.79.6 31.17.31 10.59-.3 21.15 0 31.72.07 4.94 0 5.19-.2 5.57-5.07 1.63-20.78-4.82-38.77-19.19-53.77-14-14.57-31.21-21.58-51.42-21.43-15.76.11-31.51 0-47.27 0h-2.16c-.72 0-1.75 0-2-1s.51-1.53 1.19-2a105.65 105.65 0 0 1 14.73-8.41c20.53-8.94 41.65-10.32 63-3.78a86.28 86.28 0 0 1 33.44 19.36 87.84 87.84 0 0 1 28.62 73.24c-.48 6-1.9 11.77-3.22 17.59-.73 3.2-2.4 4-5.44 4-13.34-.11-26.73-.05-40.12-.05z" fill="#00cdd1"></path><path d="M119.18 148.43c-9.27 0-18.53-.08-27.8 0-14.06.15-26.87-3.78-37.94-12.36a58.35 58.35 0 0 1-21.37-31.64c-1-3.61-1.13-7.3-2-10.89-.76-3.09.32-4.32 3.39-4.39 4.32-.08 8.64 0 13 0 2 0 2.93.75 3.2 2.85 2.16 17.22 11.35 29 27.71 34.88a28 28 0 0 0 9.62 1.84c25.33-.07 50.66 0 76 0a26.51 26.51 0 0 1 3.09.08c1.94.23 2.54 1.4 1.6 3a95.42 95.42 0 0 1-10.8 15.36c-1.24 1.43-2.94 1.3-4.59 1.3h-33.11z"></path><path d="M58.97 29.84c10 0 20-.21 30 0 24.52.63 42.47 12.06 53.75 33.74 3.39 6.52 4.84 13.74 5.59 21.05.27 2.54-.66 3.9-3.43 3.84-3.91-.1-7.82-.06-11.73 0-2.51 0-3.66-1.06-3.93-3.64-1.54-14.31-9-24.79-21.47-31.54a36.73 36.73 0 0 0-17.79-4.37c-24.7.08-49.41 0-74.11 0h-2.78c-2 0-2.28-.94-1.45-2.57A76.23 76.23 0 0 1 21.79 31.3c1.21-1.42 2.81-1.52 4.5-1.52z" fill="#00cdd1"></path></svg></svg> <!----></g></g> <g transform="translate(67,14.63390064239502)"><g data-gra="path-name" fill-rule="" class="tp-name iconsvg-namesvg"><g transform="scale(1)"><g><path d="M4.68 0Q3.7 0 3.14-0.54 2.58-1.09 2.58-2.07L2.58-2.07 2.58-21.85Q2.58-22.84 3.14-23.38 3.7-23.92 4.68-23.92L4.68-23.92 16.93-23.92Q17.92-23.92 18.46-23.48 19-23.04 19-22.22L19-22.22Q19-21.38 18.46-20.92 17.92-20.46 16.93-20.46L16.93-20.46 6.85-20.46 6.85-13.88 16.25-13.88Q17.24-13.88 17.78-13.44 18.32-13 18.32-12.15L18.32-12.15Q18.32-11.33 17.78-10.89 17.24-10.45 16.25-10.45L16.25-10.45 6.85-10.45 6.85-3.46 16.93-3.46Q17.92-3.46 18.46-3 19-2.54 19-1.7L19-1.7Q19-0.88 18.46-0.44 17.92 0 16.93 0L16.93 0 4.68 0ZM36.58-3.12Q37.19-2.51 37.19-1.73L37.19-1.73Q37.19-0.98 36.61-0.39 36.03 0.2 35.25 0.2L35.25 0.2Q34.41 0.2 33.79-0.51L33.79-0.51 29.01-5.8 24.23-0.51Q23.58 0.17 22.77 0.17L22.77 0.17Q22.02 0.17 21.44-0.41 20.87-0.98 20.87-1.73L20.87-1.73Q20.87-2.51 21.48-3.12L21.48-3.12 26.43-8.52 21.75-13.61Q21.14-14.22 21.14-15L21.14-15Q21.14-15.78 21.72-16.34 22.29-16.9 23.04-16.9L23.04-16.9Q23.85-16.9 24.5-16.22L24.5-16.22 29.01-11.26 33.52-16.22Q34.17-16.9 34.98-16.9L34.98-16.9Q35.76-16.9 36.32-16.34 36.88-15.78 36.88-15L36.88-15Q36.88-14.22 36.27-13.61L36.27-13.61 31.59-8.52 36.58-3.12ZM47.26 0.27Q44.79 0.27 42.9-0.78 41.02-1.83 40-3.77 38.99-5.7 38.99-8.28L38.99-8.28Q38.99-10.86 40.05-12.84 41.12-14.83 43.06-15.91 44.99-17 47.5-17L47.5-17Q48.83-17 50.17-16.63 51.51-16.25 52.52-15.61L52.52-15.61Q53.61-14.9 53.61-13.81L53.61-13.81Q53.61-13.06 53.25-12.61 52.9-12.15 52.32-12.15L52.32-12.15Q51.95-12.15 51.54-12.32 51.13-12.49 50.73-12.72L50.73-12.72Q49.98-13.16 49.3-13.42 48.62-13.67 47.74-13.67L47.74-13.67Q45.64-13.67 44.5-12.3 43.36-10.93 43.36-8.35L43.36-8.35Q43.36-5.8 44.5-4.43 45.64-3.05 47.74-3.05L47.74-3.05Q48.59-3.05 49.25-3.31 49.91-3.56 50.73-4L50.73-4Q51.23-4.31 51.61-4.46 51.98-4.61 52.35-4.61L52.35-4.61Q52.9-4.61 53.27-4.14 53.64-3.66 53.64-2.95L53.64-2.95Q53.64-2.38 53.39-1.95 53.13-1.53 52.56-1.19L52.56-1.19Q51.51-0.51 50.11-0.12 48.72 0.27 47.26 0.27L47.26 0.27ZM69.59-4.55Q70.17-4.55 70.52-4.11 70.88-3.66 70.88-2.92L70.88-2.92Q70.88-1.87 69.62-1.15L69.62-1.15Q68.47-0.51 67.01-0.12 65.55 0.27 64.23 0.27L64.23 0.27Q60.23 0.27 57.89-2.04 55.54-4.34 55.54-8.35L55.54-8.35Q55.54-10.89 56.56-12.86 57.58-14.83 59.43-15.91 61.28-17 63.62-17L63.62-17Q65.86-17 67.52-16.02 69.18-15.03 70.1-13.23 71.02-11.43 71.02-8.99L71.02-8.99Q71.02-7.53 69.73-7.53L69.73-7.53 59.72-7.53Q59.92-5.19 61.04-4.09 62.16-2.99 64.3-2.99L64.3-2.99Q65.38-2.99 66.21-3.26 67.05-3.53 68.1-4L68.1-4Q69.12-4.55 69.59-4.55L69.59-4.55ZM63.72-14.01Q61.99-14.01 60.96-12.93 59.92-11.84 59.72-9.81L59.72-9.81 67.39-9.81Q67.32-11.88 66.37-12.94 65.42-14.01 63.72-14.01L63.72-14.01ZM84.01-17Q86.15-17 87.83-15.91 89.51-14.83 90.44-12.84 91.37-10.86 91.37-8.28L91.37-8.28Q91.37-5.7 90.44-3.77 89.51-1.83 87.85-0.78 86.18 0.27 84.01 0.27L84.01 0.27Q82.25 0.27 80.86-0.48 79.46-1.22 78.72-2.54L78.72-2.54 78.72 4.38Q78.72 5.26 78.14 5.77 77.56 6.28 76.61 6.28L76.61 6.28Q75.66 6.28 75.07 5.73 74.48 5.19 74.48 4.31L74.48 4.31 74.48-14.93Q74.48-15.85 75.04-16.39 75.6-16.93 76.55-16.93L76.55-16.93Q77.5-16.93 78.07-16.39 78.65-15.85 78.65-14.93L78.65-14.93 78.65-14.08Q79.4-15.47 80.8-16.24 82.21-17 84.01-17L84.01-17ZM82.89-3.02Q84.89-3.02 86.01-4.39 87.13-5.77 87.13-8.28L87.13-8.28Q87.13-10.86 86.01-12.28 84.89-13.71 82.89-13.71L82.89-13.71Q80.86-13.71 79.75-12.32 78.65-10.93 78.65-8.35L78.65-8.35Q78.65-5.8 79.75-4.41 80.86-3.02 82.89-3.02L82.89-3.02ZM103.39-2.95Q105.08-2.85 105.08-1.43L105.08-1.43Q105.08-0.61 104.42-0.19 103.76 0.24 102.54 0.17L102.54 0.17 101.62 0.1Q95.92-0.31 95.92-6.01L95.92-6.01 95.92-13.4 94.22-13.4Q93.31-13.4 92.82-13.81 92.32-14.22 92.32-15L92.32-15Q92.32-15.78 92.82-16.18 93.31-16.59 94.22-16.59L94.22-16.59 95.92-16.59 95.92-19.71Q95.92-20.63 96.5-21.17 97.07-21.72 98.06-21.72L98.06-21.72Q99.01-21.72 99.59-21.17 100.16-20.63 100.16-19.71L100.16-19.71 100.16-16.59 103.05-16.59Q103.96-16.59 104.45-16.18 104.95-15.78 104.95-15L104.95-15Q104.95-14.22 104.45-13.81 103.96-13.4 103.05-13.4L103.05-13.4 100.16-13.4 100.16-5.7Q100.16-3.19 102.47-3.02L102.47-3.02 103.39-2.95ZM109.39 0.2Q108.48 0.2 107.88-0.32 107.29-0.85 107.29-1.83L107.29-1.83 107.29-14.93Q107.29-15.91 107.88-16.42 108.48-16.93 109.39-16.93L109.39-16.93Q110.31-16.93 110.92-16.42 111.53-15.91 111.53-14.93L111.53-14.93 111.53-1.83Q111.53-0.85 110.92-0.32 110.31 0.2 109.39 0.2L109.39 0.2ZM109.39-19.95Q108.24-19.95 107.56-20.58 106.88-21.21 106.88-22.22L106.88-22.22Q106.88-23.24 107.56-23.85 108.24-24.46 109.39-24.46L109.39-24.46Q110.51-24.46 111.21-23.85 111.9-23.24 111.9-22.22L111.9-22.22Q111.9-21.21 111.22-20.58 110.54-19.95 109.39-19.95L109.39-19.95ZM123.47 0.27Q120.93 0.27 119.01-0.78 117.09-1.83 116.04-3.8 114.99-5.77 114.99-8.38L114.99-8.38Q114.99-10.99 116.04-12.94 117.09-14.9 119.01-15.95 120.93-17 123.47-17L123.47-17Q126.02-17 127.93-15.95 129.85-14.9 130.89-12.94 131.92-10.99 131.92-8.38L131.92-8.38Q131.92-5.77 130.89-3.8 129.85-1.83 127.93-0.78 126.02 0.27 123.47 0.27L123.47 0.27ZM123.44-3.02Q125.51-3.02 126.59-4.38 127.68-5.73 127.68-8.38L127.68-8.38Q127.68-10.99 126.59-12.37 125.51-13.74 123.47-13.74L123.47-13.74Q121.44-13.74 120.33-12.37 119.23-10.99 119.23-8.38L119.23-8.38Q119.23-5.73 120.32-4.38 121.4-3.02 123.44-3.02L123.44-3.02ZM145.05-17Q148.04-17 149.5-15.3 150.96-13.61 150.96-10.18L150.96-10.18 150.96-1.83Q150.96-0.88 150.4-0.34 149.84 0.2 148.85 0.2L148.85 0.2Q147.87 0.2 147.29-0.34 146.71-0.88 146.71-1.83L146.71-1.83 146.71-9.94Q146.71-11.88 145.98-12.76 145.26-13.64 143.69-13.64L143.69-13.64Q141.86-13.64 140.76-12.49 139.66-11.33 139.66-9.4L139.66-9.4 139.66-1.83Q139.66-0.88 139.08-0.34 138.5 0.2 137.52 0.2L137.52 0.2Q136.54 0.2 135.98-0.34 135.42-0.88 135.42-1.83L135.42-1.83 135.42-14.96Q135.42-15.85 135.99-16.39 136.57-16.93 137.55-16.93L137.55-16.93Q138.44-16.93 139-16.41 139.56-15.88 139.56-15.03L139.56-15.03 139.56-14.11Q140.4-15.51 141.83-16.25 143.25-17 145.05-17L145.05-17ZM162.46-17Q165.92-17 167.6-15.29 169.28-13.57 169.28-10.08L169.28-10.08 169.28-1.8Q169.28-0.88 168.74-0.36 168.19 0.17 167.24 0.17L167.24 0.17Q166.36 0.17 165.8-0.37 165.24-0.92 165.24-1.8L165.24-1.8 165.24-2.54Q164.66-1.22 163.43-0.48 162.19 0.27 160.56 0.27L160.56 0.27Q158.9 0.27 157.54-0.41 156.18-1.09 155.4-2.27 154.62-3.46 154.62-4.92L154.62-4.92Q154.62-6.75 155.55-7.8 156.49-8.86 158.59-9.33 160.69-9.81 164.39-9.81L164.39-9.81 165.24-9.81 165.24-10.59Q165.24-12.25 164.53-13.01 163.82-13.78 162.22-13.78L162.22-13.78Q161.24-13.78 160.22-13.49 159.2-13.2 157.81-12.66L157.81-12.66Q156.93-12.21 156.52-12.21L156.52-12.21Q155.91-12.21 155.52-12.66 155.13-13.1 155.13-13.81L155.13-13.81Q155.13-14.39 155.42-14.81 155.71-15.23 156.38-15.61L156.38-15.61Q157.57-16.25 159.22-16.63 160.86-17 162.46-17L162.46-17ZM161.41-2.78Q163.1-2.78 164.17-3.92 165.24-5.06 165.24-6.85L165.24-6.85 165.24-7.57 164.63-7.57Q162.36-7.57 161.1-7.36 159.85-7.16 159.3-6.65 158.76-6.14 158.76-5.26L158.76-5.26Q158.76-4.17 159.52-3.48 160.29-2.78 161.41-2.78L161.41-2.78ZM175.69 0.2Q174.77 0.2 174.18-0.32 173.59-0.85 173.59-1.83L173.59-1.83 173.59-22.09Q173.59-23.07 174.18-23.58 174.77-24.09 175.69-24.09L175.69-24.09Q176.61-24.09 177.22-23.58 177.83-23.07 177.83-22.09L177.83-22.09 177.83-1.83Q177.83-0.85 177.22-0.32 176.61 0.2 175.69 0.2L175.69 0.2Z" transform="translate(-2.5799999237060547, 24.459999084472656)"></path></g> <!----> <!----> <!----> <!----> <!----> <!----> <!----></g></g> <!----></g></g></svg>